<?xml version="1.0" standalone="no"?>
<!DOCTYPE svg PUBLIC "-//W3C//DTD SVG 20010904//EN"
 "http://www.w3.org/TR/2001/REC-SVG-20010904/DTD/svg10.dtd">
<svg version="1.0" xmlns="http://www.w3.org/2000/svg"
 width="460.000000pt" height="460.000000pt" viewBox="0 0 460.000000 460.000000"
 preserveAspectRatio="xMidYMid meet">
<metadata>
Created by potrace 1.14, written by Peter Selinger 2001-2017
</metadata>
<g transform="translate(0.000000,460.000000) scale(0.100000,-0.100000)"
fill="#000000" stroke="none">
<path d="M1766 4044 c4 -30 2 -60 -5 -71 -8 -16 -5 -31 16 -73 25 -51 25 -55
21 -211 -5 -180 -17 -214 -43 -128 -9 30 -20 87 -24 126 -4 40 -12 78 -19 85
-16 16 -6 -72 19 -173 27 -111 37 -135 51 -121 21 21 23 13 20 -69 -3 -76 -2
-81 15 -74 37 15 117 34 124 29 4 -2 9 13 11 33 l3 38 25 -40 c14 -22 26 -44
29 -50 2 -5 13 -20 24 -32 l20 -22 -39 -78 c-21 -43 -46 -87 -56 -98 -9 -11
-16 -22 -16 -25 1 -3 -6 -27 -14 -55 -10 -30 -16 -80 -15 -125 2 -71 3 -75 26
-78 14 -2 21 0 17 7 -4 6 -1 9 7 5 11 -4 13 -22 9 -79 -3 -52 -1 -75 7 -75 10
0 17 150 12 280 -2 53 18 122 33 117 6 -2 11 -9 10 -15 -1 -7 -2 -37 -2 -68
-1 -34 -6 -53 -12 -49 -6 4 -11 -8 -11 -27 -3 -74 1 -229 6 -237 3 -5 -1 -11
-7 -14 -7 -2 10 -8 37 -11 28 -4 53 -8 57 -9 5 -1 -4 -15 -18 -32 -28 -32 -72
-43 -81 -19 -3 7 -9 11 -14 8 -5 -3 -9 -1 -9 5 0 5 4 11 10 13 11 3 2 48 -10
48 -17 0 -60 -43 -60 -60 0 -10 -6 -20 -14 -23 -7 -3 -18 -19 -24 -35 -9 -26
-6 -33 20 -60 16 -18 24 -32 18 -32 -12 0 -62 30 -71 44 -4 5 -11 6 -17 2 -16
-9 -107 108 -145 186 -35 73 -67 94 -93 61 -7 -10 -14 -23 -14 -28 0 -14 106
-192 139 -232 14 -18 43 -52 63 -75 42 -48 45 -60 23 -78 -19 -16 -19 -39 -1
-46 8 -3 16 -14 19 -25 3 -11 15 -23 26 -26 23 -6 24 -16 12 -80 -12 -60 1
-54 21 10 l17 52 -6 -47 c-5 -48 -5 -48 25 -48 24 0 32 5 35 23 3 17 5 16 6
-8 1 -23 6 -30 24 -32 73 -7 91 -10 94 -19 2 -5 -25 -9 -59 -9 l-62 0 -7 -35
c-17 -90 -20 -140 -6 -140 8 0 17 -25 25 -71 16 -95 37 -135 84 -167 23 -15
34 -28 28 -32 -6 -4 -8 -18 -5 -33 4 -14 1 -35 -5 -48 -11 -19 -10 -24 5 -35
9 -7 16 -23 14 -36 -3 -32 9 -59 37 -84 24 -19 24 -23 18 -123 -6 -93 -9 -103
-29 -111 -20 -8 -64 -52 -82 -84 -5 -7 -19 -17 -31 -21 -22 -6 -23 -5 -12 15
24 45 1 29 -29 -20 -29 -48 -32 -50 -48 -34 -16 16 -15 20 14 75 32 62 29 78
-6 31 l-20 -27 -1 195 c-2 232 -12 279 -29 135 -21 -170 -33 -230 -42 -212 -5
8 -20 59 -33 114 l-25 98 0 -70 c-1 -39 3 -85 8 -103 12 -41 -4 -50 -48 -27
-18 9 -37 13 -43 9 -7 -4 -1 -12 16 -21 33 -17 33 -30 1 -45 -40 -18 -65 12
-65 79 0 29 -4 53 -10 53 -5 0 -10 -21 -10 -46 0 -44 -1 -46 -25 -42 -14 3
-25 2 -25 -2 0 -4 11 -13 25 -20 22 -12 25 -20 25 -72 0 -32 -3 -58 -7 -58 -5
1 -27 18 -50 39 -43 39 -43 39 -43 109 0 65 2 72 27 90 33 24 26 40 -9 21 -12
-7 -27 -14 -33 -15 -5 0 -15 -2 -21 -2 -7 -1 -15 -18 -18 -37 -4 -19 -11 -35
-15 -35 -5 0 -11 -10 -15 -23 -3 -12 -18 -43 -34 -67 -16 -25 -37 -58 -47 -75
l-20 -30 -7 45 c-3 25 -7 72 -7 106 -1 33 -5 64 -10 70 -6 5 -15 47 -20 94 -6
47 -15 105 -20 130 l-9 45 -1 -43 c-1 -24 3 -73 8 -110 17 -119 34 -343 26
-350 -4 -4 -10 -1 -12 6 -3 6 -9 12 -13 12 -5 0 -2 -12 6 -27 7 -16 14 -34 14
-40 0 -25 -20 -13 -36 20 -15 32 -15 36 6 76 12 24 19 45 17 48 -7 6 -47 -38
-47 -51 0 -6 -5 -4 -10 4 -8 12 -10 10 -10 -9 0 -19 -3 -22 -11 -14 -9 9 -7
22 5 54 15 37 15 41 2 30 -9 -8 -16 -19 -16 -25 0 -6 -8 -20 -16 -31 -15 -18
-16 -10 -11 103 3 68 4 122 2 120 -3 -2 -9 -37 -15 -78 -6 -41 -15 -84 -19
-95 -5 -11 -13 -31 -18 -45 -9 -22 -11 -16 -17 40 -4 36 -14 106 -22 155 -8
50 -14 116 -14 148 0 36 -4 56 -10 52 -12 -7 -12 -236 -1 -365 14 -171 -10
-286 -53 -251 -8 7 -21 9 -27 5 -8 -4 -9 -3 -5 4 4 7 2 12 -3 12 -7 0 -11 27
-11 68 0 37 -3 132 -7 212 -6 116 -9 135 -14 95 -4 -27 -8 -95 -9 -150 -2 -99
-2 -100 -14 -50 -11 51 -56 146 -78 169 -25 23 -63 46 -78 46 -10 0 -3 -11 18
-29 58 -51 98 -172 73 -219 -6 -9 -19 -41 -29 -71 l-19 -54 -7 64 c-4 35 -12
69 -17 76 -7 8 -7 19 1 33 6 12 9 24 7 27 -7 6 -57 -68 -57 -84 0 -18 -17 -16
-24 3 -3 9 -6 57 -7 107 0 51 -4 112 -8 137 -8 41 -9 37 -11 -40 -4 -138 -5
-148 -12 -156 -4 -4 -11 1 -15 11 -3 10 -15 27 -25 37 -10 10 -18 28 -18 41 0
43 31 129 56 154 25 25 31 43 14 43 -20 0 -88 -79 -95 -109 -3 -17 -11 -33
-15 -36 -7 -5 -62 17 -78 30 -1 1 -13 82 -27 181 -14 98 -27 186 -30 194 -7
24 2 -120 19 -300 16 -171 14 -230 -10 -230 -17 0 -18 -12 -3 -27 7 -7 6 -26
-4 -64 l-14 -54 -2 90 c-1 50 -5 141 -9 204 -6 91 -4 117 7 128 20 21 6 26
-26 10 -63 -33 -95 -88 -133 -227 -17 -64 -18 -64 -29 -37 -6 16 -11 39 -11
52 0 35 -66 155 -105 193 -34 31 -65 42 -65 22 0 -5 4 -10 9 -10 16 0 63 -71
82 -123 25 -69 24 -91 -6 -111 l-25 -16 -1 57 -2 58 -9 -70 c-12 -89 -15 -107
-28 -125 -9 -13 -11 -13 -19 0 -15 23 -23 5 -10 -23 14 -31 4 -81 -15 -74 -12
5 -14 -74 -15 -469 l-2 -474 178 0 c98 1 1133 -2 2301 -6 l2122 -7 0 448 0
447 -25 -16 c-34 -22 -37 -20 -21 16 24 56 48 146 44 169 -2 18 -9 11 -32 -34
-15 -31 -32 -54 -37 -51 -5 3 -10 38 -10 77 -2 82 -5 69 -14 -53 -5 -64 -11
-92 -26 -110 l-20 -25 4 85 c6 95 27 164 59 191 18 16 19 19 4 19 -10 0 -30
-13 -46 -29 l-29 -28 -4 31 c-2 20 -4 12 -5 -21 -2 -38 -6 -53 -16 -53 -13 0
-53 -37 -108 -100 -24 -27 -37 -25 -30 3 5 19 3 20 -10 9 -9 -7 -22 -27 -29
-45 -17 -43 -16 -43 -39 -22 -19 17 -19 18 5 64 28 52 34 91 7 48 -9 -15 -19
-27 -22 -27 -3 0 -3 57 -2 127 4 122 -9 331 -15 268 -5 -45 -43 -267 -50 -290
-4 -13 -16 23 -35 100 -16 65 -31 122 -35 125 -6 5 3 -112 14 -182 6 -44 -6
-49 -56 -21 -24 14 -33 15 -43 5 -9 -9 -9 -12 3 -12 9 0 24 -9 34 -20 16 -18
16 -20 2 -20 -10 0 -17 -4 -17 -10 0 -21 -20 -9 -21 13 0 20 -1 20 -8 3 -12
-31 -25 -2 -37 89 l-11 80 -2 -78 c-1 -75 -2 -77 -22 -67 -29 16 -36 4 -10
-17 15 -13 21 -30 23 -66 1 -26 -1 -50 -5 -53 -3 -3 -24 9 -46 27 -30 24 -41
40 -41 60 0 15 -5 31 -11 35 -8 4 -9 0 -4 -15 4 -15 2 -21 -9 -21 -39 0 -21
61 37 124 20 22 35 41 33 44 -3 2 -20 -4 -40 -13 -19 -9 -40 -14 -45 -10 -7 3
-11 -3 -11 -15 0 -34 -125 -248 -137 -236 -2 2 -8 44 -12 92 -5 49 -11 100
-15 114 -3 14 -13 70 -22 125 -9 55 -21 107 -26 115 -6 11 -7 8 -4 -10 3 -14
8 -61 11 -105 3 -44 10 -114 15 -155 5 -41 12 -105 15 -142 6 -66 6 -66 -17
-61 -22 6 -22 5 -5 -14 17 -19 24 -63 10 -63 -13 0 -43 60 -43 83 0 12 7 31
15 41 26 35 18 54 -10 22 l-24 -28 -7 26 c-3 14 -1 39 4 56 l11 30 -34 -26
-35 -26 -1 73 -1 74 -9 -54 c-6 -36 -18 -62 -34 -79 l-25 -25 -1 24 c0 13 -2
31 -3 39 -4 20 -24 174 -30 230 -3 25 -6 52 -7 60 -2 8 -5 -84 -8 -206 -6
-238 -7 -241 -64 -271 l-30 -15 5 104 c3 56 3 87 0 68 -5 -29 -7 -22 -18 45
-9 61 -12 70 -13 38 -1 -38 -4 -42 -33 -48 -43 -10 -67 22 -68 88 0 27 -4 46
-8 43 -5 -3 -13 14 -19 37 -14 51 -63 116 -105 139 -44 24 -49 13 -10 -23 32
-30 72 -104 72 -133 0 -9 5 -16 10 -16 6 0 10 -11 10 -25 0 -19 -5 -25 -21
-25 -11 0 -18 -4 -15 -9 3 -5 -1 -14 -9 -21 -12 -10 -15 -3 -18 47 -3 53 -3
51 -5 -19 -2 -82 -21 -110 -23 -35 -1 30 -4 21 -10 -33 -5 -41 -11 -86 -14
-99 -6 -23 -6 -23 -36 10 -16 18 -29 38 -29 44 0 25 34 111 48 121 8 6 12 16
8 22 -4 6 2 17 14 24 11 7 20 16 20 20 0 21 -28 2 -90 -62 -57 -58 -70 -67
-80 -55 -7 8 -16 13 -20 10 -11 -7 -20 20 -21 58 0 18 -11 93 -24 167 -14 74
-23 108 -20 75 3 -33 9 -121 15 -195 5 -74 12 -147 15 -162 6 -35 -1 -35 -31
0 -19 21 -24 39 -25 87 l-1 60 -13 -40 c-13 -38 -19 -34 -16 10 3 29 23 65 33
59 4 -3 8 2 8 11 0 12 -4 14 -19 5 -17 -9 -20 -6 -24 18 l-4 27 -2 -30 c0 -19
-9 -35 -22 -43 -18 -11 -23 -11 -35 5 -7 10 -14 23 -14 28 -1 16 -40 62 -40
47 0 -7 6 -28 14 -46 21 -51 4 -227 -23 -226 -3 0 -19 12 -35 26 -24 21 -29
33 -28 63 2 21 -2 48 -7 62 -8 21 -10 17 -10 -23 -1 -49 -5 -54 -30 -39 -11 7
-12 22 -2 85 6 42 11 105 11 140 0 34 3 66 6 69 4 3 8 40 10 82 3 66 1 77 -16
88 -20 12 -20 13 11 37 l31 26 -18 36 c-16 35 -16 37 5 63 11 15 21 34 21 41
0 8 4 14 9 14 5 0 14 13 19 29 7 20 21 32 46 41 32 10 42 8 103 -20 37 -18 86
-38 107 -46 22 -8 45 -19 52 -25 21 -17 278 -98 287 -90 24 23 -76 90 -203
136 -19 7 -88 38 -153 69 -65 31 -122 56 -127 56 -4 0 -11 24 -15 53 -4 28
-20 96 -36 150 -27 87 -32 97 -46 85 -9 -7 -18 -12 -20 -10 -1 1 -28 2 -59 2
l-56 0 7 -27 c4 -16 7 -43 7 -62 0 -18 3 -29 7 -24 9 14 133 25 151 13 23 -14
8 -21 -68 -27 -70 -6 -70 -6 -61 -30 7 -19 6 -24 -3 -21 -7 3 -14 14 -16 26
-3 18 -10 22 -40 23 -20 0 -46 4 -56 8 -18 7 -18 8 -3 14 9 3 17 2 17 -3 0 -6
7 -10 15 -10 8 0 15 5 15 10 0 6 6 9 13 8 8 -2 11 12 10 51 -2 30 -4 55 -5 56
-2 1 -27 -1 -56 -5 -46 -6 -54 -4 -63 13 -6 10 -8 21 -5 25 3 3 6 1 6 -4 0 -5
23 -9 50 -10 48 -1 50 0 50 27 0 34 -17 82 -27 76 -5 -3 -29 -8 -55 -11 -43
-6 -48 -5 -48 13 0 17 8 20 52 23 46 3 53 6 59 28 l7 25 1 -26 c1 -25 3 -27
49 -24 39 2 112 -15 112 -27 0 -2 -31 -2 -70 -1 -38 1 -71 -1 -74 -5 -2 -4 1
-27 7 -52 12 -45 12 -45 48 -39 21 3 55 4 78 3 37 -2 40 -1 31 16 -13 24 -13
60 0 60 6 0 13 -7 16 -15 14 -35 66 -41 78 -9 6 16 -1 27 -51 81 -18 19 -33
36 -33 38 0 2 25 -3 55 -11 40 -11 60 -12 75 -4 36 19 22 41 -45 70 -28 12
-68 23 -90 25 -37 3 -41 6 -46 36 -4 19 -7 26 -8 17 -2 -25 -21 -23 -21 2 0
11 -4 20 -10 20 -13 0 -13 37 1 45 6 4 8 13 5 20 -5 14 18 28 28 18 3 -4 6
-18 7 -32 l1 -26 11 28 c10 26 14 27 79 27 l68 0 0 35 c0 28 4 35 20 35 12 0
20 7 21 18 0 9 2 44 4 77 2 37 -2 63 -9 67 -8 6 -7 8 2 8 21 0 13 28 -10 33
l-23 4 22 2 c20 1 22 5 18 34 -4 25 -3 28 4 12 9 -19 10 -19 10 -1 1 10 -7 25
-16 33 -17 13 -17 13 2 11 29 -4 25 25 -5 33 -16 4 -19 7 -7 8 9 1 17 4 18 9
3 21 -1 91 -7 118 -3 18 -1 34 4 38 6 4 6 19 -2 44 -20 67 -36 82 -104 98 -45
10 -72 24 -98 48 -31 29 -98 73 -249 161 -19 11 -47 39 -64 61 -45 64 -85 87
-155 92 -34 2 -66 9 -73 14 -16 13 -36 0 -29 -18 3 -8 0 -14 -7 -14 -8 0 -6
-4 3 -10 12 -8 12 -10 -5 -10 -26 0 -90 -100 -100 -154 -11 -67 -14 -34 -4 49
6 44 9 139 7 210 -3 122 -6 135 -36 200 l-32 70 6 -51z m211 -300 c-3 -3 -12
-4 -19 -1 -8 3 -5 6 6 6 11 1 17 -2 13 -5z m123 -88 c10 -23 17 -43 14 -45
-13 -13 -64 66 -64 100 0 21 30 -12 50 -55z m-120 32 c1 -2 4 -31 7 -65 4 -53
3 -64 -11 -69 -22 -9 -27 -3 -33 43 -5 41 10 93 27 93 5 0 10 -1 10 -2z m75
-59 c9 -17 14 -33 12 -36 -4 -3 -37 53 -37 64 0 11 12 -1 25 -28z m-155 9 c0
-8 -39 -102 -40 -95 -1 21 23 97 31 97 5 0 9 -1 9 -2z m163 -120 c12 -13 22
-26 22 -30 0 -4 17 -30 38 -57 20 -28 37 -53 37 -55 0 -3 -17 -10 -37 -15 -38
-11 -63 -1 -63 24 0 6 -11 25 -25 41 -38 44 -56 86 -43 101 16 20 45 16 71 -9z
m-214 -83 c1 -41 -2 -75 -7 -75 -5 0 -10 34 -10 75 -1 41 2 75 7 75 4 0 9 -34
10 -75z m344 20 c21 -30 31 -52 22 -49 -8 4 -15 10 -15 14 0 5 -6 15 -13 22
-21 22 -48 68 -40 68 5 -1 25 -25 46 -55z m294 -91 c-3 -3 -12 -4 -19 -1 -8 3
-5 6 6 6 11 1 17 -2 13 -5z m-62 -55 c-22 -4 -62 -7 -90 -7 l-50 1 50 7 c28 4
68 7 90 7 l40 1 -40 -9z m-260 -9 c3 -5 1 -10 -4 -10 -6 0 -11 5 -11 10 0 6 2
10 4 10 3 0 8 -4 11 -10z m487 -8 c4 -4 -28 -7 -70 -8 -45 0 -60 1 -37 4 l40
6 -40 7 c-26 5 -16 6 30 2 39 -2 73 -8 77 -11z m-179 1 c-7 -2 -21 -2 -30 0
-10 3 -4 5 12 5 17 0 24 -2 18 -5z m144 -19 c-3 -3 -12 -4 -19 -1 -8 3 -5 6 6
6 11 1 17 -2 13 -5z m-562 -54 c-3 -5 -11 -10 -16 -10 -6 0 -7 5 -4 10 3 6 11
10 16 10 6 0 7 -4 4 -10z m312 4 c-3 -3 -12 -4 -19 -1 -8 3 -5 6 6 6 11 1 17
-2 13 -5z m110 0 c-3 -3 -12 -4 -19 -1 -8 3 -5 6 6 6 11 1 17 -2 13 -5z m86
-11 c-13 -2 -33 -2 -45 0 -13 2 -3 4 22 4 25 0 35 -2 23 -4z m-523 -27 c0 -3
-4 -8 -10 -11 -5 -3 -10 -1 -10 4 0 6 5 11 10 11 6 0 10 -2 10 -4z m-15 -36
c-3 -5 -11 -10 -16 -10 -6 0 -7 5 -4 10 3 6 11 10 16 10 6 0 7 -4 4 -10z m69
-69 c-2 -2 -8 7 -13 20 l-10 24 -1 -25 -1 -25 -11 23 c-9 18 -7 26 8 43 l19
21 6 -38 c4 -22 5 -41 3 -43z m100 54 c3 -8 1 -15 -4 -15 -6 0 -10 7 -10 15 0
8 2 15 4 15 2 0 6 -7 10 -15z m-210 -50 c-19 -30 -26 -28 -17 3 3 12 12 22 19
22 12 0 11 -5 -2 -25z m584 18 c-10 -2 -26 -2 -35 0 -10 3 -2 5 17 5 19 0 27
-2 18 -5z m69 -9 c-3 -3 -12 -4 -19 -1 -8 3 -5 6 6 6 11 1 17 -2 13 -5z m-437
-29 c0 -8 -4 -15 -10 -15 -5 0 -7 7 -4 15 4 8 8 15 10 15 2 0 4 -7 4 -15z
m208 8 c-10 -2 -28 -2 -40 0 -13 2 -5 4 17 4 22 1 32 -1 23 -4z m77 -3 c3 -6
-1 -7 -9 -4 -18 7 -21 14 -7 14 6 0 13 -4 16 -10z m78 -7 c-7 -2 -19 -2 -25 0
-7 3 -2 5 12 5 14 0 19 -2 13 -5z m-603 -27 c0 -3 -4 -8 -10 -11 -5 -3 -10 -1
-10 4 0 6 5 11 10 11 6 0 10 -2 10 -4z m4 -38 c-3 -4 -9 -8 -15 -8 -5 0 -9 4
-9 8 0 5 7 9 15 9 8 0 12 -4 9 -9z m344 5 c-10 -2 -28 -2 -40 0 -13 2 -5 4 17
4 22 1 32 -1 23 -4z m105 -10 c-13 -2 -33 -2 -45 0 -13 2 -3 4 22 4 25 0 35
-2 23 -4z m77 -3 c12 -8 11 -10 -7 -10 -13 0 -23 5 -23 10 0 13 11 13 30 0z
m47 -6 c-3 -3 -12 -4 -19 -1 -8 3 -5 6 6 6 11 1 17 -2 13 -5z m66 -11 c-7 -2
-21 -2 -30 0 -10 3 -4 5 12 5 17 0 24 -2 18 -5z m-305 -10 c-21 -2 -55 -2 -75
0 -21 2 -4 4 37 4 41 0 58 -2 38 -4z m355 0 c-7 -2 -19 -2 -25 0 -7 3 -2 5 12
5 14 0 19 -2 13 -5z m-226 -9 c-3 -3 -12 -4 -19 -1 -8 3 -5 6 6 6 11 1 17 -2
13 -5z m126 -11 c-7 -2 -19 -2 -25 0 -7 3 -2 5 12 5 14 0 19 -2 13 -5z m54 -9
c-3 -3 -12 -4 -19 -1 -8 3 -5 6 6 6 11 1 17 -2 13 -5z m66 -11 c-7 -2 -19 -2
-25 0 -7 3 -2 5 12 5 14 0 19 -2 13 -5z m-214 -73 c5 0 11 -9 14 -20 3 -11 1
-20 -5 -20 -5 0 -7 -9 -3 -19 5 -17 -16 -51 -33 -51 -3 0 -1 5 5 11 6 6 9 41
7 82 -1 40 0 60 2 45 3 -16 9 -28 13 -28z m-106 27 c31 0 57 -3 57 -9 0 -5 5
-6 10 -3 18 11 11 -17 -7 -31 -17 -13 -17 -13 0 -14 9 0 17 -4 17 -10 0 -8
-23 -8 -72 -1 -13 2 -9 19 6 24 10 4 13 1 9 -9 -8 -20 10 -17 24 5 11 17 5 19
-100 26 -62 4 -120 8 -129 9 -10 0 -14 3 -10 7 13 13 47 16 92 10 25 -3 71 -5
103 -4z m154 -13 c-3 -3 -12 -4 -19 -1 -8 3 -5 6 6 6 11 1 17 -2 13 -5z m86
-11 c27 -4 35 -9 25 -15 -9 -6 -6 -8 12 -7 44 2 60 -1 60 -12 0 -15 -112 -1
-124 16 -8 11 -12 10 -22 -3 -12 -15 -13 -15 -11 6 1 24 4 25 60 15z m-303
-23 c0 -6 -30 -10 -70 -10 -40 0 -70 4 -70 10 0 6 30 10 70 10 40 0 70 -4 70
-10z m45 -10 c-4 -6 -11 -8 -16 -5 -5 4 -9 1 -9 -4 0 -6 -4 -11 -10 -11 -5 0
-7 7 -4 15 4 8 15 15 26 15 10 0 16 -5 13 -10z m225 -22 c0 -4 5 -8 11 -8 5 0
7 5 4 10 -3 6 -1 10 4 10 6 0 11 -4 11 -10 0 -5 14 -10 30 -10 17 0 30 -3 30
-7 0 -5 -27 -6 -60 -5 -39 3 -60 8 -60 16 0 7 7 13 15 13 8 0 15 -4 15 -9z
m130 -27 c0 -4 -7 -8 -15 -8 -8 0 -15 6 -15 13 0 8 6 11 15 8 8 -4 15 -9 15
-13z m-445 -1 c3 -5 -1 -10 -10 -10 -9 0 -13 5 -10 10 3 6 8 10 10 10 2 0 7
-4 10 -10z m-29 -31 c4 -8 9 -7 15 2 5 9 9 9 9 3 0 -7 -11 -19 -25 -28 -33
-21 -32 -29 10 -74 l34 -39 -40 -42 c-23 -23 -43 -40 -45 -38 -2 2 14 22 36
44 l41 40 -26 17 c-22 15 -29 15 -43 4 -17 -13 -110 -98 -164 -150 -15 -14
-28 -23 -28 -19 0 4 45 51 100 104 86 83 99 100 91 116 -8 15 -7 20 5 25 10 4
14 14 11 26 -5 21 7 27 19 9z m210 -33 c0 -14 -5 -21 -9 -17 -4 4 -5 15 -1 24
9 24 12 21 10 -7z m-776 10 c0 -3 -4 -8 -10 -11 -5 -3 -10 -1 -10 4 0 6 5 11
10 11 6 0 10 -2 10 -4z m740 -10 c0 -3 -4 -8 -10 -11 -5 -3 -10 -1 -10 4 0 6
5 11 10 11 6 0 10 -2 10 -4z m-723 -32 c-3 -3 -12 -4 -19 -1 -8 3 -5 6 6 6 11
1 17 -2 13 -5z m410 0 c-3 -3 -12 -4 -19 -1 -8 3 -5 6 6 6 11 1 17 -2 13 -5z
m-387 -28 c0 -3 -4 -8 -10 -11 -5 -3 -10 -1 -10 4 0 6 5 11 10 11 6 0 10 -2
10 -4z m680 -26 c0 -5 -5 -10 -11 -10 -5 0 -7 5 -4 10 3 6 8 10 11 10 2 0 4
-4 4 -10z m-30 -33 c0 -2 -10 -12 -22 -23 l-23 -19 19 23 c18 21 26 27 26 19z
m-50 -46 c0 -5 -7 -12 -16 -15 -14 -5 -15 -4 -4 9 14 17 20 19 20 6z m-65 -21
c3 -5 1 -10 -4 -10 -6 0 -11 5 -11 10 0 6 2 10 4 10 3 0 8 -4 11 -10z m-76
-32 c-13 -10 -37 -26 -54 -34 -29 -15 -29 -15 5 14 19 17 40 35 45 40 6 5 14
7 19 4 5 -2 -2 -13 -15 -24z m73 -8 c-12 -11 -25 -20 -29 -20 -9 1 36 40 45
40 3 0 -4 -9 -16 -20z m125 -12 c-3 -8 -6 -5 -6 6 -1 11 2 17 5 13 3 -3 4 -12
1 -19z m126 5 c-7 -2 -19 -2 -25 0 -7 3 -2 5 12 5 14 0 19 -2 13 -5z m-493
-43 c0 -5 -5 -10 -11 -10 -5 0 -7 5 -4 10 3 6 8 10 11 10 2 0 4 -4 4 -10z
m-17 -40 c3 -12 0 -20 -8 -20 -7 0 -12 10 -11 24 1 28 11 26 19 -4z m177 26
c0 -2 -7 -7 -16 -10 -8 -3 -12 -2 -9 4 6 10 25 14 25 6z m420 -6 c0 -5 -8 -10
-17 -10 -15 0 -16 2 -3 10 19 12 20 12 20 0z m-535 -30 c-3 -5 -12 -10 -18
-10 -7 0 -6 4 3 10 19 12 23 12 15 0z m112 -44 c1 -1 -2 -15 -6 -32 l-9 -29
-1 28 c-1 15 -4 26 -8 26 -19 -3 -33 2 -33 12 0 9 47 5 57 -5z m120 -28 c-3
-7 -5 -2 -5 12 0 14 2 19 5 13 2 -7 2 -19 0 -25z m30 -110 c-3 -8 -6 -5 -6 6
-1 11 2 17 5 13 3 -3 4 -12 1 -19z m-220 -185 c-3 -10 -5 -2 -5 17 0 19 2 27
5 18 2 -10 2 -26 0 -35z m260 -25 c-3 -8 -6 -5 -6 6 -1 11 2 17 5 13 3 -3 4
-12 1 -19z m-90 6 c-3 -3 -12 -4 -19 -1 -8 3 -5 6 6 6 11 1 17 -2 13 -5z m23
-28 c0 -3 -4 -8 -10 -11 -5 -3 -10 -1 -10 4 0 6 5 11 10 11 6 0 10 -2 10 -4z
m-203 -28 c-3 -8 -6 -5 -6 6 -1 11 2 17 5 13 3 -3 4 -12 1 -19z m420 8 c9 -8
-86 -6 -117 3 -15 5 1 7 43 6 37 -1 71 -5 74 -9z m-460 -78 c-3 -8 -6 -5 -6 6
-1 11 2 17 5 13 3 -3 4 -12 1 -19z m170 -60 c-3 -8 -6 -5 -6 6 -1 11 2 17 5
13 3 -3 4 -12 1 -19z m-23 -24 c17 -6 23 -64 7 -64 -5 0 -7 10 -4 21 4 15 0
27 -12 35 -20 15 -16 18 9 8z m77 -57 c-10 -9 -11 -8 -5 6 3 10 9 15 12 12 3
-3 0 -11 -7 -18z m-1856 -599 c-6 -179 -11 -226 -23 -240 -8 -10 -19 -18 -24
-18 -11 0 -10 63 3 114 6 24 9 54 7 67 -3 16 -8 4 -16 -36 -22 -101 -27 -106
-41 -38 -14 66 -11 80 23 93 19 8 19 9 -7 9 -32 1 -32 -1 -1 124 15 61 59 147
76 147 6 0 7 -79 3 -222z m1772 130 c-2 -13 -4 -3 -4 22 0 25 2 35 4 23 2 -13
2 -33 0 -45z m-647 -49 c0 -45 -2 -50 -15 -39 -20 17 -19 1 1 -21 12 -14 15
-28 9 -56 l-7 -38 -16 30 c-18 35 -17 107 4 147 8 15 17 28 19 28 3 0 5 -23 5
-51z m-984 -35 c27 -46 27 -46 9 -80 -19 -36 -27 -37 -32 -1 -2 12 -7 46 -12
75 -4 28 -4 52 0 52 5 0 20 -21 35 -46z m2061 -11 c-3 -10 -5 -4 -5 12 0 17 2
24 5 18 2 -7 2 -21 0 -30z m-816 -20 c6 -21 15 -42 19 -48 4 -5 11 -24 14 -42
6 -25 3 -35 -15 -52 -13 -12 -26 -21 -30 -21 -9 0 0 68 12 92 12 23 11 25 -6
25 -8 0 -15 -8 -15 -18 0 -35 -17 -28 -29 11 -10 35 -9 43 6 65 24 33 29 31
44 -12z m351 -105 c-3 -87 -8 -130 -19 -146 -8 -13 -16 -22 -19 -20 -8 8 30
288 39 288 1 0 0 -55 -1 -122z m-462 86 c0 -8 -4 -14 -10 -14 -5 0 -10 9 -10
21 0 11 5 17 10 14 6 -3 10 -13 10 -21z m524 -106 c-3 -10 -10 -18 -15 -18
-11 0 -12 123 -1 134 9 10 23 -92 16 -116z m-2014 98 c0 -8 -13 -30 -30 -48
-40 -43 -38 -14 3 50 11 16 27 15 27 -2z m1930 1 c0 -7 -7 -22 -15 -33 -13
-17 -14 -16 -4 14 11 33 19 41 19 19z m-536 -33 c53 -52 60 -74 31 -110 -14
-16 -24 -35 -25 -41 0 -7 -5 -13 -11 -13 -6 0 -9 9 -6 19 3 14 1 18 -9 14 -11
-4 -14 7 -14 50 0 30 -3 69 -6 86 -4 17 -4 31 -2 31 3 0 22 -16 42 -36z m1061
-38 c-9 -75 -25 -98 -25 -34 0 61 10 109 22 102 6 -4 7 -31 3 -68z m455 62 c0
-7 -12 -25 -25 -40 -39 -45 -48 -34 -15 20 20 32 40 43 40 20z m-659 -35 c-10
-17 -10 -16 -11 3 0 23 13 41 18 25 2 -6 -1 -18 -7 -28z m-1951 -5 c0 -18 -2
-20 -9 -8 -6 8 -7 18 -5 22 9 14 14 9 14 -14z m2334 13 c4 -5 3 -17 0 -26 -5
-13 -8 -14 -15 -3 -5 7 -9 19 -9 26 0 14 16 16 24 3z m-2624 -66 c0 -53 -12
-64 -34 -30 -14 22 -14 26 1 54 22 38 33 31 33 -24z m361 2 c-13 -13 -15 1 -4
30 7 17 8 17 11 -1 2 -10 -1 -23 -7 -29z m947 -24 c15 -81 13 -95 -12 -91 -14
2 -21 10 -20 26 0 12 1 47 2 78 2 69 16 63 30 -13z m959 45 c-3 -8 -6 -5 -6 6
-1 11 2 17 5 13 3 -3 4 -12 1 -19z m643 -35 l0 -58 -25 29 c-13 16 -22 34 -18
40 8 15 35 46 40 46 1 0 3 -26 3 -57z m129 -30 l0 -88 -19 74 c-15 55 -17 78
-9 88 23 27 29 11 28 -74z m-2451 -3 c0 -25 -2 -37 -5 -27 -2 9 -9 17 -14 17
-10 0 -12 34 -2 69 6 23 7 23 14 5 4 -10 7 -39 7 -64z m1737 16 c3 -27 8 -60
11 -73 9 -35 -5 -28 -22 12 -16 38 -20 135 -5 120 6 -6 12 -32 16 -59z m1561
36 c11 -29 8 -56 -6 -47 -5 3 -11 -9 -15 -26 l-7 -32 -18 39 c-16 36 -16 41
-1 67 20 34 34 34 47 -1z m-2891 -19 c-17 -40 -25 -52 -25 -36 0 21 22 73 31
73 5 0 2 -17 -6 -37z m1505 -52 c0 -59 -1 -63 -15 -45 -15 20 -19 73 -8 112
10 40 23 4 23 -67z m1120 15 l-1 -51 -18 33 c-21 40 -17 100 5 81 9 -7 14 -31
14 -63z m-3340 13 c-16 -28 -22 -19 -14 21 6 25 9 29 16 16 5 -10 5 -24 -2
-37z m199 -78 l-1 -66 -9 60 c-4 33 -10 78 -13 100 l-6 40 15 -34 c9 -20 15
-60 14 -100z m1336 85 c-8 -39 -25 -49 -25 -15 0 23 19 63 26 56 3 -3 2 -21
-1 -41z m1958 25 c2 -10 1 -25 -4 -32 -6 -10 -9 -4 -9 19 0 36 5 42 13 13z
m472 -3 c-4 -13 -10 -73 -13 -135 -7 -104 -14 -135 -28 -120 -5 5 8 141 22
222 l5 30 -22 -33 c-12 -18 -24 -31 -26 -28 -7 6 50 86 61 86 4 0 5 -10 1 -22z
m-3552 -2 c4 -10 1 -13 -8 -9 -8 3 -12 9 -9 14 7 12 11 11 17 -5z m1663 -24
c-4 -3 -11 0 -16 8 -15 24 -11 33 6 15 9 -9 13 -19 10 -23z m1336 -34 c21 -23
38 -48 38 -56 0 -16 -48 -99 -62 -108 -6 -4 -8 2 -3 16 4 14 3 25 -4 30 -13 8
-27 160 -15 160 4 0 25 -19 46 -42z m-3732 -13 c17 -51 6 -67 -14 -21 -9 21
-16 45 -16 53 0 24 18 5 30 -32z m2230 36 c0 -6 -4 -13 -10 -16 -5 -3 -10 1
-10 9 0 9 5 16 10 16 6 0 10 -4 10 -9z m49 -77 c-7 -43 -14 -73 -17 -66 -5 15
18 155 25 148 3 -2 -1 -40 -8 -82z m741 60 c0 -8 -4 -14 -10 -14 -5 0 -10 9
-10 21 0 11 5 17 10 14 6 -3 10 -13 10 -21z m-1911 -36 c1 -10 -3 -18 -9 -18
-5 0 -10 17 -9 38 0 30 2 33 9 17 5 -11 9 -28 9 -37z m118 15 c-3 -10 -5 -4
-5 12 0 17 2 24 5 18 2 -7 2 -21 0 -30z m1672 30 c0 -5 -4 -17 -9 -28 -8 -18
-9 -17 -9 8 -1 15 4 27 9 27 6 0 10 -3 9 -7z m467 -20 c-10 -10 -19 5 -10 18
6 11 8 11 12 0 2 -7 1 -15 -2 -18z m581 -70 c-11 -13 -25 -23 -30 -23 -10 0
-2 57 15 99 l10 26 13 -40 c11 -36 10 -42 -8 -62z m-3217 68 c5 -11 10 -48 9
-83 -1 -47 -3 -57 -9 -38 -8 25 -8 25 -10 -5 l-2 -30 -11 26 c-13 29 -10 149
4 149 4 0 13 -9 19 -19z m1395 -20 c-15 -31 -35 -49 -35 -33 0 10 39 62 46 62
2 0 -2 -13 -11 -29z m1522 -86 l6 -77 -21 13 c-24 15 -25 19 -15 109 8 79 21
60 30 -45z m-1055 33 c-10 -38 -22 -28 -22 19 1 45 1 47 14 24 7 -13 11 -32 8
-43z m-135 15 c-3 -10 -5 -4 -5 12 0 17 2 24 5 18 2 -7 2 -21 0 -30z m466 -25
c-3 -16 -9 -28 -14 -28 -16 0 -20 26 -9 56 9 23 13 26 20 14 4 -8 6 -27 3 -42z
m403 5 c-11 -21 -15 -23 -16 -10 0 24 22 65 27 50 2 -6 -3 -24 -11 -40z m-299
5 c-3 -7 -5 -2 -5 12 0 14 2 19 5 13 2 -7 2 -19 0 -25z m1127 5 c-11 -51 -14
-57 -25 -46 -8 8 -6 20 5 42 20 38 28 40 20 4z m-4227 -45 c-2 -13 -4 -3 -4
22 0 25 2 35 4 23 2 -13 2 -33 0 -45z m1403 43 c0 -17 -12 -41 -21 -41 -7 0
-7 24 0 48 2 7 21 1 21 -7z m-729 -97 c-18 -40 -32 -17 -24 41 l6 49 15 -32
c13 -26 13 -36 3 -58z m1459 65 c0 -11 -4 -18 -10 -14 -5 3 -7 12 -3 20 7 21
13 19 13 -6z m-1003 -21 c-3 -7 -5 -2 -5 12 0 14 2 19 5 13 2 -7 2 -19 0 -25z
m1462 -16 c0 -15 -4 -36 -9 -47 -6 -15 -9 -6 -9 33 -1 33 3 51 9 47 6 -3 10
-18 9 -33z m883 10 c3 -9 1 -26 -3 -37 -8 -20 -8 -20 -8 0 -1 11 -4 31 -8 44
-4 16 -2 22 4 18 6 -4 13 -15 15 -25z m121 13 c-3 -9 -8 -14 -10 -11 -3 3 -2
9 2 15 9 16 15 13 8 -4z m891 -47 c-9 -18 -19 -28 -21 -21 -4 12 28 65 35 58
2 -2 -4 -18 -14 -37z m-3054 -3 c0 -14 -4 -25 -9 -25 -4 0 -6 11 -3 25 2 14 6
25 8 25 2 0 4 -11 4 -25z m-1376 -40 c5 -29 4 -36 -3 -25 -6 8 -11 28 -11 44
0 39 6 31 14 -19z m3157 22 c-10 -9 -11 -8 -5 6 3 10 9 15 12 12 3 -3 0 -11
-7 -18z m-2911 3 c0 -5 -4 -10 -10 -10 -5 0 -10 5 -10 10 0 6 5 10 10 10 6 0
10 -4 10 -10z m908 -72 c-3 -22 -4 -23 -15 -3 -7 14 -8 27 0 45 10 25 10 25
14 3 3 -13 3 -33 1 -45z m2492 55 c0 -5 -5 -15 -10 -23 -8 -12 -10 -11 -10 8
0 12 5 22 10 22 6 0 10 -3 10 -7z m-1953 -70 c-3 -10 -5 -2 -5 17 0 19 2 27 5
18 2 -10 2 -26 0 -35z m1680 15 c-3 -8 -6 -5 -6 6 -1 11 2 17 5 13 3 -3 4 -12
1 -19z m290 -70 c-3 -7 -5 -2 -5 12 0 14 2 19 5 13 2 -7 2 -19 0 -25z m-207
-28 c0 -22 -4 -40 -10 -40 -11 0 -14 63 -3 73 11 12 13 8 13 -33z m-2323 -192
c-2 -13 -4 -5 -4 17 -1 22 1 32 4 23 2 -10 2 -28 0 -40z m2300 -105 c-2 -16
-4 -5 -4 22 0 28 2 40 4 28 2 -13 2 -35 0 -50z"/>
<path d="M2378 2863 c7 -3 16 -2 19 1 4 3 -2 6 -13 5 -11 0 -14 -3 -6 -6z"/>
<path d="M1900 3343 c8 -3 19 -11 23 -17 6 -7 7 -6 4 4 -2 8 -12 16 -23 17
-13 2 -15 1 -4 -4z"/>
<path d="M2521 2624 c0 -11 3 -14 6 -6 3 7 2 16 -1 19 -3 4 -6 -2 -5 -13z"/>
<path d="M1846 2083 c-16 -102 -3 -143 49 -150 20 -3 23 2 29 44 4 27 9 64 12
84 5 33 3 37 -21 43 -14 4 -30 4 -35 1 -6 -4 -10 -1 -10 4 0 27 -18 7 -24 -26z
m15 -73 c-7 -46 -9 -49 -10 -19 -1 42 12 112 16 89 2 -8 -1 -40 -6 -70z"/>
<path d="M3462 1195 c0 -16 2 -22 5 -12 2 9 2 23 0 30 -3 6 -5 -1 -5 -18z"/>
<path d="M5 1179 c-4 -6 -5 -13 -2 -16 7 -7 27 6 27 18 0 12 -17 12 -25 -2z"/>
</g>
</svg>
